<?xml version="1.0" encoding="utf-8"?>
<!-- Generator: Adobe Illustrator 19.1.0, SVG Export Plug-In . SVG Version: 6.00 Build 0)  -->
<svg version="1.1" id="Layer_1" xmlns="http://www.w3.org/2000/svg" xmlns:xlink="http://www.w3.org/1999/xlink" x="0px" y="0px"
	 viewBox="0 0 201 219" style="enable-background:new 0 0 201 219;" xml:space="preserve">
<g>
	<rect x="65.5" y="17.6" transform="matrix(0.7071 0.7071 -0.7071 0.7071 37.101 -43.4361)" width="10.9" height="10.9"/>
	<rect x="65.5" y="48.5" transform="matrix(0.7071 0.7071 -0.7071 0.7071 58.938 -34.3909)" width="10.9" height="10.9"/>
	<rect x="65.5" y="33.1" transform="matrix(0.7071 0.7071 -0.7071 0.7071 48.0373 -38.9061)" width="10.9" height="10.9"/>
	<path d="M2.3,46.8l15.4,15.4l7.7-7.8v0h0.1l0,0l7.7,7.7l7.7-7.7l-4.6-4.6V12.6l4.5-4.5l-7.7-7.7l-7.7,7.7h0v0l0,0l0,0v15.4
		l-7.7-7.7L2.3,31.2l7.7,7.7L2.3,46.8z M25.4,23.6v30.8L10,38.9L25.4,23.6z"/>
	<rect x="144.7" y="17.9" transform="matrix(0.7071 0.7071 -0.7071 0.7071 60.5259 -99.3171)" width="10.9" height="10.9"/>
	<polygon points="131.6,54 139.3,61.7 147,54 142.4,49.4 142.4,23.4 142.4,23.3 142.4,23.1 142.4,12.3 147,7.7 139.3,0 131.6,7.7 
		131.6,7.8 131.5,7.8 131.5,23.1 131.5,23.3 131.5,54 131.6,54 	"/>
	<polygon points="165.5,23.3 165.5,49.4 160.9,54 168.6,61.7 176.3,54 176.3,54 176.4,54 176.4,23.3 188.5,35.5 188.5,49.6 
		184,54.1 191.7,61.8 199.4,54.1 199.4,54.1 199.4,54.1 199.4,30.9 199.4,30.9 199.4,30.9 199.4,30.9 199.4,30.9 184,15.5 
		176.4,23.3 176.4,23.1 176.4,7.8 176.3,7.8 176.3,7.7 168.6,0 160.9,7.7 165.5,12.3 165.5,23.1 	"/>
	<polygon points="100.3,61.7 108,54 108,54 108,54 115.7,61.7 123.5,54 118.9,49.4 118.9,27.7 123.5,23.1 115.8,15.4 108,23.1 
		108,23.1 100.3,15.4 84.9,30.8 92.6,38.5 108,23.2 108,53.9 92.6,38.5 84.9,46.2 	"/>
	<polygon points="47.8,54 55.5,61.7 63.2,54 58.6,49.4 58.6,27.7 63.2,23.1 55.5,15.4 47.8,23.1 47.7,23.1 47.7,54 47.8,54 	"/>
	<rect x="110.5" y="96" transform="matrix(0.7071 0.7071 -0.7071 0.7071 105.7327 -52.2588)" width="10.9" height="10.9"/>
	<polygon points="108.2,127.8 108.2,101.7 108.2,101.5 108.2,101.5 108.2,90.7 112.8,86.1 105.1,78.4 97.4,86.1 97.4,86.2 
		97.3,86.2 97.3,101.5 97.3,101.7 97.3,132.4 97.4,132.4 97.4,132.4 105.1,140.1 112.8,132.4 	"/>
	<rect x="187.8" y="95.7" transform="matrix(-0.7071 -0.7071 0.7071 -0.7071 258.4029 309.3812)" width="10.9" height="10.9"/>
	<rect x="187.8" y="126.6" transform="matrix(-0.7071 -0.7071 0.7071 -0.7071 236.5668 362.1001)" width="10.9" height="10.9"/>
	<rect x="187.8" y="111.2" transform="matrix(-0.7071 -0.7071 0.7071 -0.7071 247.4674 335.7836)" width="10.9" height="10.9"/>
	<polygon points="185.6,101.2 177.8,93.5 170.1,101.2 170.1,101.2 170.1,132.1 170.1,132.1 170.1,132.1 177.8,139.8 185.6,132.1 
		181,127.5 181,105.8 	"/>
	<polygon points="73.3,132.2 73.3,132.2 73.3,132.2 73.3,132.2 73.3,101.3 73.3,101.3 73.3,101.3 65.6,93.6 57.9,101.3 62.4,105.9 
		62.4,127.7 57.9,132.2 65.6,139.9 73.3,132.2 	"/>
	<polygon points="42.5,127.7 37.9,132.2 45.6,140 53.3,132.2 53.4,132.2 53.4,105.9 57.9,101.3 50.2,93.6 42.4,101.4 42.5,101.4 	
		"/>
	<path d="M25.1,139.8l7.7-7.7h0v-30.9h0l0,0l-7.7-7.7l-7.7,7.7l-7.7-7.7l-7.7,7.7l0,0v30.9l0,0l7.7,7.7l7.7-7.7L25.1,139.8z
		 M17.4,132.1l-4.5-4.5v-21.8l4.5-4.5l4.5,4.5v21.8L17.4,132.1z"/>
	<polygon points="148,132.6 155.8,140.4 163.5,132.6 163.5,132.6 163.5,132.6 163.5,109.4 163.5,109.4 163.5,109.4 163.5,109.4 
		163.5,109.4 148.1,94 140.5,101.8 140.5,101.6 140.5,86.3 140.4,86.3 140.4,86.2 132.7,78.5 125,86.2 129.6,90.8 129.6,101.6 
		129.6,101.8 129.6,127.9 125,132.5 132.7,140.2 140.4,132.5 140.4,132.5 140.5,132.5 140.5,101.8 152.6,114 152.6,128.1 	"/>
	<polygon points="164.8,180.4 164.8,180.3 164.8,180.3 157.1,172.6 149.3,180.3 153.9,184.9 153.9,206.6 149.3,211.2 157.1,218.9 
		164.8,211.2 164.8,211.2 164.8,211.2 164.8,180.4 172.6,188.1 180.3,180.4 172.5,172.7 	"/>
	<polygon points="134.3,172.6 126.6,180.3 131.1,184.9 131.1,206.6 126.5,211.2 122,206.6 122,180.3 122,180.3 122,180.3 122,180.3 
		122,180.3 114.2,172.6 106.5,180.3 111.1,184.8 111.1,211.2 111.1,211.2 111.1,211.2 118.8,218.9 126.5,211.2 134.2,218.9 
		142,211.2 141.9,211.2 142,211.2 142,180.3 142,180.3 	"/>
	<path d="M101.7,179.8l-7.7-7.7l-7.7,7.7l-7.7-7.7l-7.7,7.7l0,0v30.9l0,0l7.7,7.7l7.7-7.7l7.7,7.7l7.7-7.7h0L101.7,179.8
		L101.7,179.8L101.7,179.8z M90.8,184.4v21.8l-4.5,4.5l-4.5-4.5v-21.8l4.5-4.5L90.8,184.4z"/>
	<polygon points="62.7,187.3 62.7,187.3 62.6,187.3 47.3,171.9 39.6,179.7 39.6,179.5 39.6,164.2 39.5,164.2 39.6,164.2 31.8,156.5 
		24.1,164.2 28.7,168.8 28.7,179.5 28.7,179.8 28.7,205.8 24.1,210.4 31.9,218.1 39.6,210.4 39.6,210.4 39.6,210.4 39.6,179.8 
		51.8,191.9 51.8,206 47.2,210.6 54.9,218.3 62.6,210.6 62.6,210.6 62.7,210.6 62.7,187.3 62.7,187.3 	"/>
</g>
</svg>
