<svg id="Layer_1" data-name="Layer 1" xmlns="http://www.w3.org/2000/svg" viewBox="0 0 431.09 361.48"><defs><style>.cls-1{fill:#010101;}.cls-2{fill:#ce2028;}</style></defs><title>cafe-ale</title><path class="cls-1" d="M79.64,286.28a151.81,151.81,0,0,0-26.29,16.14A180.07,180.07,0,0,0,36.7,317H75.22c2.86,0,49.71,1,65.85-9.11,13-7.81,20.56-18,21.34-33.31l.52-9.89h45.29v13.79c0,12.23-1.56,31.23-11.71,47.11-16.14,25.25-39.82,34.62-70,34.62h-77l-48.93-56A197.85,197.85,0,0,1,20.3,282.37a227,227,0,0,1,22.12-19.78Z"/><path class="cls-1" d="M207.7,229.55H186.87l25,38.52c-9.63,12.23-31.23,19.26-38.78,18.74-23.43-1-41.12-17.44-47.63-37l-7-20h-5.21a12.63,12.63,0,0,0-9.63,4.17c-3.12,3.12,1.3,16.92,10.15,27.07l8.59,10.15H75.22L71.57,260c-1.56-3.9-5.46-22.12-4.94-35.14.26-12,1.82-21.6,10.93-29.15,6-4.69,10.93-7,19-7H207.7Zm-65.59,0c.78,9.89,8.85,17.18,19,17.18,11.45-.26,16.92-7.55,17.7-17.18Z"/><path class="cls-1" d="M79.12,100.2,56,122.32H70.53v-9.11H91.09v9.11H207.17v42.94l-116.34.26v15.1L68.45,165.26H54.92L6.77,116.07,45.55,69.22Z"/><path class="cls-1" d="M49.71,50.75,41.12,58,0,26c4.16-3.12,6.77-5.21,10.67-8.59,3.64-3.38,6.25-5.73,9.63-9.37Zm107,.78,3.38-3.38c.52-.52,5.21-5.73,7.29-9.89a65.25,65.25,0,0,0,6-15.1l33.06,30.71-1,3.12c-1.56,4.68-13,28.37-29.15,36.18-10.15,5.21-17.44,6-28.89,6H92.92L58.82,46.59,100.72,0ZM97.34,59.6h37.74l-18-18Z"/><polygon class="cls-2" points="101.41 361.48 222.77 140.81 344.13 361.48 101.41 361.48"/><path class="cls-1" d="M431.09,276.12l-39.56,7.29V318l39.3,6v30.45L242.14,318l-13-49.19,202-40.08Zm-139.51,25,72.36,12.23v-25Z"/><path class="cls-1" d="M430.83,218.1H232.24V175.67H430.83Z"/><path class="cls-1" d="M273.11,113.82l-8.59,7.29-41.12-32c4.16-3.12,6.77-5.21,10.67-8.59,3.64-3.38,6.25-5.73,9.63-9.37Zm107,.78,3.38-3.38c.52-.52,5.21-5.73,7.29-9.89a65.25,65.25,0,0,0,6-15.1l33.06,30.71-1,3.12c-1.56,4.68-13,28.37-29.15,36.18-10.15,5.21-17.44,6-28.89,6h-54.4l-34.1-52.57,41.91-46.59Zm-59.34,8.07h37.74l-18-18Z"/></svg>